<?xml version="1.0" standalone="no"?>
<!DOCTYPE svg PUBLIC "-//W3C//DTD SVG 20010904//EN"
"http://www.w3.org/TR/2001/REC-SVG-20010904/DTD/svg10.dtd">
<svg version="1.0" xmlns="http://www.w3.org/2000/svg"
width="256.000000pt" height="256.000000pt" viewBox="0 0 256.000000 256.000000"
preserveAspectRatio="xMidYMid meet">

    <g transform="translate(0.000000,256.000000) scale(0.100000,-0.100000)"
    fill="#005ED9" stroke="none">
        <path d="M1160 2550 c-298 -28 -565 -155 -780 -370 -247 -247 -373 -550 -373
        -900 0 -299 86 -549 268 -785 320 -414 876 -588 1382 -434 398 121 721 444
        842 842 75 246 73 522 -6 771 -106 334 -365 624 -688 768 -199 89 -430 128
        -645 108z m40 -372 l0 -203 -221 -221 -221 -221 1 -219 2 -219 -205 -204 -204
        -204 -15 24 c-37 57 -100 207 -125 297 -23 87 -26 114 -26 272 0 158 3 185 27
        273 112 414 433 719 852 807 50 10 100 19 113 19 l22 1 0 -202z m358 166 c111
        -28 254 -94 356 -164 87 -60 224 -199 279 -283 60 -90 125 -237 154 -344 24
        -88 27 -115 27 -273 0 -158 -3 -185 -27 -273 -26 -97 -118 -307 -134 -307 -4
        0 -97 89 -206 198 l-198 199 2 217 2 218 -222 222 -221 221 0 203 0 203 48 -7
        c26 -3 89 -17 140 -30z m82 -1069 l0 -180 -178 -178 -177 -177 -178 178 -177
        177 0 180 0 180 177 177 178 178 177 -177 178 -178 0 -180z m-440 -898 l0
        -199 -52 7 c-220 30 -450 135 -600 273 -91 85 -92 82 119 294 l178 178 177
        -177 178 -178 0 -198z m880 172 c0 -31 -90 -120 -183 -182 -130 -86 -321 -158
        -479 -181 l-48 -7 0 198 0 198 177 177 178 178 177 -177 c141 -141 178 -183
        178 -204z"/>
    </g>
</svg>
